<svg width="24" height="24" viewBox="0 0 24 24" fill="none" xmlns="http://www.w3.org/2000/svg">
<path fill-rule="evenodd" clip-rule="evenodd" d="M10.3 1.99988C5.7 1.99988 2 5.59988 2 10.0999C2 14.5999 5.7 18.1999 10.3 18.1999C12 18.1999 13.7 17.6999 15.1 16.6999L15.2 16.5999L20.3 21.6999C20.7 22.0999 21.3 22.0999 21.7 21.6999C21.9 21.4999 22 21.2999 22 20.9999C22 20.6999 21.9 20.4999 21.7 20.2999L16.6 15.1999L16.7 15.0999C18 13.6999 18.7 11.7999 18.7 9.89988C18.7 5.59988 14.9 1.99988 10.3 1.99988ZM10.3 16.1999C6.8 16.1999 4 13.4999 4 10.0999C4 6.69988 6.9 3.89988 10.4 3.89988C13.9 3.89988 16.8 6.69988 16.8 10.0999C16.8 13.4999 13.9 16.1999 10.3 16.1999Z" fill="#0D4CD3"/>
</svg>
